# xmcd
#
# Track frame offsets:
# 150
# 14065
# 26433
# 41613
# 54797
# 69046
# 77944
# 96832
# 107824
# 128622
# 142274
#
# Disc length: 2107 seconds
#
# Revision: 0
# Processed by: cddbd v1.5.1PL2 Copyright (c) Steve Scherf et al.
# Submitted via: Audion 3.0.2 (http://www.panic.com/audion/)
#
DISCID=8d08390b
DTITLE=Sanctuary Quartet - Sanctuary Quartet
DYEAR=1900
DGENRE=
TTITLE0=Why Seek Ye The Living
TTITLE1=He's My Lord
TTITLE2=Lazarus
TTITLE3=He Is Mine
TTITLE4=I Remember The Day
TTITLE5=Lift Me Up
TTITLE6=Lord Feed Your Children
TTITLE7=Between The DEvil and the Deep Blue Sea
TTITLE8=Wonderful Peace
TTITLE9=God On The Mountain
TTITLE10=Where No One Stands Alone
EXTD=
EXTT0=
EXTT1=
EXTT2=
EXTT3=
EXTT4=
EXTT5=
EXTT6=
EXTT7=
EXTT8=
EXTT9=
EXTT10=
PLAYORDER=
